<mxfile host="app.diagrams.net" modified="2023-08-17T16:41:21.631Z" agent="Mozilla/5.0 (Windows NT 10.0; Win64; x64) AppleWebKit/537.36 (KHTML, like Gecko) Chrome/116.0.0.0 Safari/537.36" etag="2WUhgaUOtAc3j0sbZ6_A" version="21.3.8" type="github">
  <diagram name="Page-1" id="EJjrdKj9oKi_ABtfEwRk">
    <mxGraphModel dx="1687" dy="1033" grid="1" gridSize="10" guides="1" tooltips="1" connect="1" arrows="1" fold="1" page="1" pageScale="1" pageWidth="850" pageHeight="1100" math="0" shadow="0">
      <root>
        <mxCell id="0" />
        <mxCell id="1" parent="0" />
        <mxCell id="lyIA_JZpkggq6tvMYKOh-67" value="Unite Reports" style="ellipse;whiteSpace=wrap;html=1;aspect=fixed;" vertex="1" parent="1">
          <mxGeometry x="385" y="510" width="80" height="80" as="geometry" />
        </mxCell>
        <mxCell id="lyIA_JZpkggq6tvMYKOh-68" value="" style="edgeStyle=orthogonalEdgeStyle;html=1;verticalAlign=bottom;endArrow=open;endSize=8;strokeColor=#ff0000;rounded=1;exitX=0.5;exitY=0;exitDx=0;exitDy=0;startArrow=none;curved=1;entryX=0;entryY=0.5;entryDx=0;entryDy=0;" edge="1" parent="1" source="lyIA_JZpkggq6tvMYKOh-67" target="lyIA_JZpkggq6tvMYKOh-69">
          <mxGeometry relative="1" as="geometry">
            <mxPoint x="527" y="360" as="targetPoint" />
            <mxPoint x="465" y="250" as="sourcePoint" />
            <Array as="points">
              <mxPoint x="425" y="250" />
            </Array>
          </mxGeometry>
        </mxCell>
        <mxCell id="lyIA_JZpkggq6tvMYKOh-69" value="School Services" style="rounded=1;whiteSpace=wrap;html=1;" vertex="1" parent="1">
          <mxGeometry x="510" y="220" width="120" height="60" as="geometry" />
        </mxCell>
        <mxCell id="lyIA_JZpkggq6tvMYKOh-70" value="" style="edgeStyle=orthogonalEdgeStyle;html=1;verticalAlign=bottom;endArrow=open;endSize=8;strokeColor=#ff0000;rounded=1;exitX=0.5;exitY=1;exitDx=0;exitDy=0;startArrow=none;curved=1;entryX=0.662;entryY=0.037;entryDx=0;entryDy=0;entryPerimeter=0;" edge="1" parent="1" source="lyIA_JZpkggq6tvMYKOh-69" target="lyIA_JZpkggq6tvMYKOh-67">
          <mxGeometry relative="1" as="geometry">
            <mxPoint x="520" y="370" as="targetPoint" />
            <mxPoint x="435" y="520" as="sourcePoint" />
            <Array as="points">
              <mxPoint x="570" y="450" />
              <mxPoint x="438" y="450" />
            </Array>
          </mxGeometry>
        </mxCell>
        <mxCell id="lyIA_JZpkggq6tvMYKOh-71" value="Response" style="text;html=1;strokeColor=none;fillColor=default;align=center;verticalAlign=middle;whiteSpace=wrap;rounded=1;" vertex="1" parent="1">
          <mxGeometry x="380" y="340" width="120" height="30" as="geometry" />
        </mxCell>
        <mxCell id="lyIA_JZpkggq6tvMYKOh-73" value="Request" style="text;html=1;strokeColor=none;fillColor=default;align=center;verticalAlign=middle;whiteSpace=wrap;rounded=1;" vertex="1" parent="1">
          <mxGeometry x="500" y="380" width="120" height="30" as="geometry" />
        </mxCell>
        <mxCell id="lyIA_JZpkggq6tvMYKOh-75" value="School Services" style="rounded=1;whiteSpace=wrap;html=1;" vertex="1" parent="1">
          <mxGeometry x="365" y="810" width="120" height="60" as="geometry" />
        </mxCell>
      </root>
    </mxGraphModel>
  </diagram>
</mxfile>
